<?xml version="1.0" standalone="no"?>
<!DOCTYPE svg PUBLIC "-//W3C//DTD SVG 20010904//EN"
 "http://www.w3.org/TR/2001/REC-SVG-20010904/DTD/svg10.dtd">
<svg version="1.0" xmlns="http://www.w3.org/2000/svg"
 width="840.000000pt" height="859.000000pt" viewBox="0 0 840.000000 859.000000"
 preserveAspectRatio="xMidYMid meet">
<metadata>
Created by potrace 1.16, written by Peter Selinger 2001-2019
</metadata>
<g transform="translate(0.000000,859.000000) scale(0.100000,-0.100000)"
fill="#000000" stroke="none">
<path d="M4205 8440 c-135 -10 -325 -37 -359 -49 -15 -6 -38 -11 -51 -11 -51
0 -295 -92 -295 -111 0 -5 -6 -9 -13 -9 -24 0 -51 -44 -51 -82 -1 -43 23 -73
70 -90 19 -7 34 -15 34 -20 0 -7 -64 -28 -87 -28 -7 0 -27 -6 -45 -14 -18 -8
-51 -22 -73 -31 -224 -93 -438 -270 -516 -428 -89 -181 -55 -352 84 -422 28
-14 62 -25 76 -26 28 0 35 4 -79 -48 -77 -35 -180 -114 -265 -204 -50 -52 -96
-102 -103 -111 -34 -42 -92 -137 -117 -191 -38 -83 -42 -92 -63 -160 -40 -125
-51 -173 -63 -268 -15 -118 -1 -212 39 -265 27 -36 92 -72 128 -72 39 0 124
55 124 80 0 6 3 10 8 10 11 0 49 88 66 155 8 33 17 107 20 165 6 122 24 180
69 224 58 56 191 126 239 126 9 0 19 -9 23 -19 7 -22 -3 -71 -15 -71 -5 0 -11
-13 -15 -30 -4 -16 -11 -30 -16 -30 -5 0 -9 -6 -9 -14 0 -12 -53 -136 -81
-188 -5 -10 -14 -37 -19 -60 -6 -24 -16 -61 -22 -83 -7 -24 -11 -118 -11 -230
0 -164 3 -198 21 -250 22 -65 53 -125 65 -125 4 0 7 -4 7 -10 0 -25 100 -101
163 -124 45 -17 50 -17 90 -1 47 19 67 37 99 92 37 65 28 228 -23 399 -5 17
-9 56 -9 88 0 49 5 65 36 112 40 61 122 139 155 147 20 5 21 3 15 -38 -3 -25
-10 -53 -15 -62 -30 -60 -46 -144 -46 -243 0 -135 21 -203 85 -270 61 -65 114
-90 191 -90 53 0 66 4 100 31 44 34 73 84 83 141 6 35 25 80 63 153 48 91 217
210 335 236 97 21 265 23 348 4 138 -32 298 -94 405 -158 11 -6 43 -25 70 -41
28 -17 69 -44 91 -61 23 -16 52 -37 65 -45 40 -25 262 -252 294 -300 17 -25
33 -46 38 -48 4 -2 7 -8 7 -12 0 -5 13 -28 29 -52 32 -49 101 -189 101 -207 0
-6 4 -19 9 -29 47 -87 85 -332 76 -487 -4 -55 -10 -113 -15 -130 -5 -16 -13
-57 -18 -90 -13 -75 -37 -191 -56 -270 -36 -145 -41 -164 -49 -171 -4 -4 -7
-16 -7 -26 0 -20 -36 -133 -51 -160 -5 -10 -9 -23 -9 -30 -1 -7 -9 -31 -20
-53 -11 -22 -19 -44 -20 -49 0 -5 -9 -29 -21 -53 -18 -37 -30 -47 -97 -78 -42
-20 -90 -43 -105 -51 -16 -7 -34 -14 -40 -14 -7 0 -25 -8 -42 -17 -36 -21
-173 -23 -220 -3 -62 25 -280 52 -621 76 -99 7 -114 3 -219 -62 -22 -14 -48
-27 -57 -31 -10 -3 -18 -9 -18 -13 0 -5 -13 -11 -30 -15 -16 -4 -30 -10 -30
-15 0 -4 -12 -11 -27 -15 -15 -3 -30 -10 -33 -13 -9 -13 -107 -42 -139 -42
-17 0 -50 4 -73 10 -24 5 -72 14 -108 20 -89 14 -193 36 -265 54 -33 8 -82 20
-110 26 -27 6 -59 15 -70 19 -50 21 -186 53 -200 47 -9 -3 -15 -18 -15 -34 0
-47 -18 -54 -86 -36 -71 18 -123 30 -229 50 -134 26 -145 27 -163 13 -9 -8
-27 -20 -39 -26 -13 -7 -33 -19 -45 -25 -13 -7 -25 -15 -28 -18 -21 -21 -260
-140 -281 -140 -10 0 -19 -4 -19 -9 0 -4 -24 -13 -52 -19 -48 -10 -58 -8 -105
14 -28 13 -61 24 -72 24 -11 0 -23 5 -26 10 -3 6 -13 10 -21 10 -8 0 -34 8
-57 18 -92 40 -180 71 -228 81 -19 4 -41 11 -47 15 -6 3 -43 10 -83 15 l-72
10 -41 -35 c-22 -19 -51 -37 -63 -40 -13 -4 -23 -10 -23 -14 0 -4 -12 -11 -27
-14 -25 -6 -60 -20 -115 -47 -9 -5 -36 -12 -60 -15 -24 -4 -45 -10 -48 -14 -3
-4 -34 -12 -70 -19 -36 -6 -85 -16 -110 -21 -25 -5 -69 -9 -97 -9 -29 -1 -53
-5 -53 -9 0 -5 -43 -10 -96 -11 -96 -2 -154 11 -154 36 0 6 -4 13 -9 15 -38
15 -225 358 -298 548 -11 31 -12 18 -8 -110 9 -236 43 -476 101 -715 8 -33 19
-78 24 -100 10 -46 95 -310 109 -340 6 -11 20 -42 32 -70 55 -127 121 -249
201 -373 10 -15 22 -37 28 -49 5 -13 14 -23 20 -23 5 0 10 -5 10 -10 0 -10 36
-66 50 -80 3 -3 37 -45 75 -95 38 -49 72 -92 75 -95 3 -3 30 -34 60 -70 70
-83 316 -329 400 -399 36 -30 72 -62 81 -70 31 -31 69 -61 109 -87 22 -15 40
-31 40 -35 0 -5 5 -9 12 -9 6 0 18 -7 27 -16 9 -8 48 -37 86 -64 39 -27 75
-53 81 -57 13 -10 60 -40 169 -106 11 -7 22 -15 25 -18 3 -3 37 -23 75 -44 39
-21 88 -49 110 -61 82 -46 368 -184 382 -184 5 -1 26 -9 48 -20 22 -11 48 -19
57 -20 9 0 19 -4 23 -9 3 -5 19 -12 36 -16 17 -4 42 -13 57 -21 15 -8 35 -14
44 -14 9 0 19 -4 22 -9 4 -5 24 -12 46 -16 22 -4 42 -10 45 -15 3 -5 24 -11
47 -15 23 -4 49 -11 58 -15 39 -20 326 -85 530 -120 253 -44 718 -61 980 -36
253 25 361 42 595 93 146 32 388 102 452 129 17 8 38 14 46 14 9 0 19 5 22 10
3 6 14 10 23 10 9 0 28 6 42 13 14 7 48 21 75 31 162 59 660 317 673 348 2 4
10 8 17 8 8 0 20 6 27 12 7 7 40 31 73 53 33 22 62 42 65 45 14 14 70 50 79
50 5 0 11 4 13 9 2 5 35 32 73 61 39 29 75 58 80 64 6 6 33 29 60 51 144 114
411 383 556 559 13 16 32 38 42 48 9 10 17 23 17 28 0 6 3 10 8 10 4 0 20 20
35 45 16 25 33 45 38 45 5 0 9 5 9 12 0 6 8 21 19 32 10 12 52 71 92 132 93
139 97 145 109 169 6 11 19 34 29 50 37 57 162 301 201 390 12 28 32 73 45
100 12 28 33 79 45 115 13 36 27 70 30 75 4 6 11 26 15 45 4 19 11 40 15 45 4
6 17 44 29 85 21 71 28 97 64 230 50 186 99 478 112 665 31 457 7 832 -80
1225 -7 36 -17 81 -20 100 -4 19 -10 49 -15 65 -4 17 -15 55 -23 85 -31 115
-59 206 -66 220 -5 9 -12 30 -16 49 -4 18 -13 44 -21 59 -8 15 -14 32 -14 38
0 7 -7 25 -15 40 -8 16 -15 37 -15 46 0 9 -4 19 -9 22 -5 3 -12 17 -15 30 -14
54 -202 443 -248 513 -15 23 -28 45 -28 50 0 5 -16 32 -35 60 -19 29 -35 57
-35 63 0 5 -4 10 -10 10 -5 0 -10 5 -10 10 0 12 -41 73 -52 78 -5 2 -8 8 -8
14 0 5 -8 20 -17 33 -10 12 -25 33 -33 45 -8 12 -19 28 -25 34 -5 6 -23 30
-39 54 -16 23 -33 42 -37 42 -5 0 -9 6 -9 14 0 8 -3 16 -7 18 -5 2 -26 26 -47
53 -22 28 -47 57 -55 66 -9 9 -43 47 -75 85 -91 105 -338 344 -356 344 -5 0
-10 3 -10 8 0 4 -26 27 -57 52 -72 55 -71 55 -108 85 -16 14 -49 37 -72 52
-24 15 -43 31 -43 35 0 4 -4 8 -9 8 -5 0 -43 21 -83 48 -41 26 -83 53 -93 60
-11 6 -27 15 -35 19 -8 4 -48 26 -88 50 -41 24 -85 46 -98 49 -13 3 -24 10
-24 15 0 5 -5 9 -12 9 -6 0 -39 13 -72 28 -34 16 -81 37 -106 47 -25 10 -63
26 -85 35 -22 10 -62 25 -90 35 -27 9 -57 20 -65 25 -9 4 -30 11 -49 15 -18 4
-44 13 -59 21 -15 8 -33 14 -40 14 -7 0 -34 6 -60 14 -164 49 -314 81 -572
121 -119 19 -615 28 -785 15z m635 -100 c301 -30 651 -110 877 -201 15 -6 37
-15 48 -19 43 -17 123 -53 191 -86 39 -19 76 -34 82 -34 7 0 12 -4 12 -9 0 -5
14 -12 30 -16 17 -4 30 -11 30 -16 0 -5 5 -9 11 -9 9 0 103 -55 263 -153 22
-14 24 -14 88 -62 26 -19 52 -35 57 -35 6 0 11 -4 11 -8 0 -4 12 -15 28 -24
15 -9 36 -25 47 -35 11 -10 45 -38 75 -62 160 -126 364 -327 512 -505 33 -39
67 -80 76 -91 9 -11 24 -31 33 -45 9 -14 25 -35 35 -47 11 -11 26 -31 34 -43
8 -12 23 -33 33 -45 9 -13 17 -26 17 -29 0 -4 5 -12 10 -19 41 -48 50 -62 50
-73 0 -7 3 -14 8 -16 9 -4 52 -65 52 -74 0 -4 6 -15 14 -23 7 -9 28 -43 47
-76 18 -33 43 -78 55 -100 24 -42 97 -190 119 -240 22 -51 64 -152 89 -215 10
-25 22 -54 27 -65 15 -36 60 -168 84 -245 7 -25 21 -70 30 -100 65 -218 122
-533 146 -820 13 -146 6 -675 -10 -765 -6 -33 -15 -96 -20 -140 -12 -96 -35
-227 -57 -315 -8 -36 -20 -89 -26 -117 -5 -29 -14 -53 -19 -53 -11 0 -12 24
-1 34 7 7 16 77 43 326 15 135 15 758 1 915 -26 278 -33 341 -41 356 -5 8 -12
51 -16 95 -4 43 -11 84 -15 89 -4 6 -11 39 -15 75 -4 35 -11 71 -16 80 -4 8
-13 40 -18 70 -27 145 -87 354 -151 520 -12 30 -25 66 -30 80 -22 68 -154 354
-170 370 -3 3 -11 15 -17 28 -32 56 -39 67 -50 80 -7 7 -13 18 -13 23 0 5 -5
15 -10 22 -6 7 -33 43 -62 81 -67 90 -83 105 -118 112 -25 5 -31 2 -41 -19 -9
-21 -8 -44 6 -114 9 -48 21 -93 26 -100 6 -6 13 -43 16 -82 6 -74 -10 -121
-42 -121 -8 0 -15 -4 -15 -9 0 -5 -15 -12 -33 -15 -91 -17 -62 -132 91 -365
75 -114 78 -118 103 -171 12 -25 26 -54 32 -65 6 -11 14 -38 19 -60 24 -110
28 -147 19 -197 -18 -96 -33 -153 -45 -160 -14 -9 -11 -156 5 -248 19 -112 -3
-615 -30 -675 -5 -11 -12 -47 -16 -79 -3 -33 -9 -64 -14 -70 -5 -6 -12 -33
-16 -61 -4 -27 -10 -54 -15 -60 -4 -5 -11 -25 -15 -44 -14 -64 -66 -186 -177
-411 -61 -124 -114 -227 -118 -230 -4 -3 -11 -16 -15 -30 -4 -14 -10 -27 -14
-30 -6 -5 -24 -36 -77 -140 -42 -80 -46 -140 -11 -140 46 -1 101 -35 121 -76
10 -21 23 -47 28 -58 15 -29 21 -186 9 -246 -22 -117 -33 -165 -41 -175 -4 -5
-10 -27 -14 -47 -4 -21 -11 -38 -16 -38 -6 0 -10 -4 -10 -10 0 -18 -44 -110
-52 -110 -4 0 -8 -6 -8 -14 0 -13 -80 -131 -114 -168 -8 -10 -32 -42 -52 -73
-20 -30 -41 -55 -45 -55 -5 0 -9 -7 -9 -15 0 -8 -3 -15 -7 -15 -5 0 -28 -27
-53 -60 -24 -33 -48 -60 -52 -60 -5 0 -8 -7 -8 -15 0 -7 -6 -18 -13 -22 -7 -4
-25 -24 -41 -43 -77 -94 -176 -200 -336 -360 -183 -183 -216 -213 -290 -270
-25 -19 -49 -40 -53 -47 -4 -7 -15 -13 -22 -13 -8 0 -15 -4 -15 -8 0 -13 -189
-137 -289 -189 -101 -54 -244 -113 -272 -113 -10 0 -19 -4 -19 -10 0 -5 -18
-13 -40 -16 -22 -4 -43 -10 -45 -15 -3 -4 -26 -11 -50 -15 -25 -3 -48 -10 -50
-14 -3 -5 -30 -12 -60 -15 -31 -4 -58 -11 -60 -16 -3 -4 -37 -11 -75 -15 -39
-4 -73 -11 -76 -15 -7 -11 -34 -12 -34 -1 0 5 32 19 70 31 39 13 73 27 76 32
3 5 13 9 22 9 16 0 218 99 307 149 56 32 232 151 261 176 6 6 22 17 34 25 30
20 114 83 120 89 3 3 30 26 60 51 123 100 173 145 295 261 95 91 256 257 340
350 53 59 63 71 135 159 25 30 48 57 51 60 3 3 49 64 102 135 53 72 100 135
105 140 5 6 39 61 76 123 152 256 157 423 16 494 -70 35 -101 35 -172 -1 -32
-16 -58 -25 -58 -20 0 5 9 26 20 46 11 21 20 43 20 50 0 7 5 13 10 13 6 0 10
7 10 15 0 8 9 32 20 52 11 21 20 43 20 50 0 6 3 13 8 15 4 2 25 48 47 103 22
55 43 102 47 103 5 2 8 10 8 18 0 13 18 63 51 139 22 52 42 102 49 125 5 14
25 70 45 125 20 55 40 114 45 130 5 17 19 62 33 100 39 115 67 209 67 227 0 9
4 19 9 22 4 3 11 29 15 58 4 28 10 57 14 62 8 12 27 113 42 226 6 41 15 100
20 131 13 72 13 416 0 471 -5 24 -14 70 -19 103 -14 87 -31 156 -47 192 -8 17
-14 38 -14 47 0 9 -4 24 -9 34 -6 9 -20 40 -33 67 -58 127 -183 247 -240 229
-28 -9 -32 -47 -18 -199 18 -200 2 -231 -57 -112 -46 92 -103 213 -103 220 0
10 -74 132 -82 135 -5 2 -8 8 -8 13 0 9 -37 67 -50 79 -3 3 -27 32 -52 65 -55
72 -167 185 -225 228 -24 17 -43 34 -43 39 0 4 -7 8 -15 8 -8 0 -15 4 -15 8 0
5 -10 14 -22 21 -27 14 -48 27 -108 65 -66 43 -232 126 -252 126 -9 0 -18 4
-20 8 -9 23 -322 109 -483 133 -38 5 -92 15 -120 20 -81 17 -370 23 -470 10
-134 -17 -199 -28 -237 -39 -18 -6 -60 -18 -93 -28 -64 -19 -134 -46 -175 -68
-14 -8 -46 -25 -73 -39 -62 -33 -163 -114 -206 -165 -31 -38 -101 -147 -101
-158 0 -4 -6 -20 -14 -37 -40 -90 -80 -324 -75 -436 3 -53 -10 -81 -45 -105
-27 -17 -116 -22 -116 -6 0 6 -6 10 -13 10 -27 0 -93 77 -115 134 -38 100 -30
174 44 421 29 99 29 119 0 135 -51 27 -158 -18 -238 -102 -51 -53 -103 -143
-119 -206 -14 -56 -15 -44 34 -305 9 -50 8 -66 -7 -110 -26 -74 -40 -87 -96
-87 -72 0 -119 46 -174 170 -53 121 -53 384 1 540 19 56 70 162 102 215 53 86
63 111 64 167 2 48 -2 61 -21 80 -64 65 -263 -8 -391 -144 -40 -42 -48 -53
-56 -79 -4 -13 -11 -28 -15 -34 -4 -5 -11 -55 -14 -110 -7 -104 -28 -207 -49
-247 -48 -89 -78 -110 -113 -77 -13 12 -24 30 -24 39 0 9 -5 21 -11 27 -24 24
4 377 32 408 5 5 9 15 9 23 0 13 30 88 52 127 29 55 131 187 197 257 76 80
190 178 209 178 6 0 12 3 14 8 2 4 39 24 83 45 44 21 88 43 97 48 10 5 46 18
80 30 35 11 77 27 95 35 17 8 40 14 50 14 10 0 23 4 29 8 5 5 43 20 84 32 85
27 165 62 195 85 34 27 28 103 -12 159 -18 26 -33 50 -33 55 0 11 35 25 95 41
44 10 56 10 99 -6 69 -26 91 -60 91 -137 0 -48 -6 -71 -25 -102 -13 -22 -27
-42 -30 -45 -18 -16 -90 -114 -86 -118 16 -15 171 134 192 184 31 74 6 175
-58 235 -73 68 -192 101 -284 79 -29 -7 -54 -17 -54 -21 0 -4 -9 -10 -19 -14
-23 -7 -136 -117 -210 -206 -77 -90 -121 -131 -167 -153 -21 -10 -47 -23 -56
-27 -45 -22 -117 1 -162 51 -41 46 -55 135 -33 210 35 119 133 226 308 334 80
51 229 126 248 126 5 0 22 7 37 15 16 8 38 15 50 15 11 0 24 4 30 10 5 5 32
14 59 20 28 6 82 17 120 25 149 31 235 62 235 85 0 20 -71 38 -176 45 -113 8
-174 25 -174 50 0 55 291 127 625 154 132 11 515 11 625 1z m-1304 -952 c29
-46 26 -63 -13 -79 -15 -7 -42 -18 -60 -25 -17 -8 -35 -14 -41 -14 -5 0 -23
-7 -38 -15 -16 -8 -37 -15 -46 -15 -9 0 -19 -4 -22 -9 -6 -9 -96 -34 -102 -28
-2 2 13 21 33 42 21 22 53 57 71 80 19 22 59 66 89 98 l56 57 24 -26 c13 -15
36 -44 49 -66z m2314 -2934 c-5 -82 -14 -212 -20 -289 -5 -77 -14 -162 -19
-190 -6 -27 -15 -81 -20 -120 -17 -117 -33 -199 -41 -210 -4 -5 -11 -32 -15
-60 -4 -27 -10 -54 -15 -60 -4 -5 -10 -27 -14 -47 -4 -20 -13 -50 -21 -65 -8
-15 -15 -34 -15 -41 0 -7 -4 -20 -10 -30 -5 -9 -21 -44 -36 -77 -84 -193 -215
-405 -324 -524 -8 -9 -33 -39 -55 -66 -50 -63 -304 -318 -370 -370 -27 -22
-56 -47 -65 -55 -39 -36 -85 -70 -96 -70 -6 0 -14 -7 -18 -15 -3 -8 -12 -15
-21 -15 -8 0 -15 -4 -15 -9 0 -12 -193 -106 -257 -125 -97 -30 -124 -12 -57
39 61 46 121 106 99 99 -11 -4 -24 -10 -30 -14 -5 -4 -39 -17 -75 -30 -36 -13
-76 -30 -90 -37 -14 -7 -30 -13 -36 -13 -10 0 -37 -10 -129 -50 -11 -5 -51
-19 -90 -32 -38 -13 -72 -26 -75 -29 -3 -3 -23 -9 -45 -13 -22 -4 -44 -11 -50
-16 -5 -4 -80 -10 -165 -13 -173 -6 -211 -16 -295 -77 -124 -92 -490 -216
-665 -227 -102 -6 -375 35 -595 90 -127 32 -151 39 -167 47 -9 6 -35 13 -58
16 -22 4 -40 10 -40 14 0 4 -20 11 -45 14 -25 4 -45 11 -45 15 0 5 -16 12 -36
16 -20 3 -44 10 -53 15 -36 20 -111 50 -125 50 -8 0 -17 4 -21 9 -3 5 -19 12
-35 16 -17 4 -30 11 -30 16 0 5 -6 9 -12 9 -7 1 -31 9 -53 20 -22 11 -46 19
-52 20 -7 0 -13 5 -13 10 0 6 -6 10 -12 10 -7 0 -51 20 -98 45 -47 24 -97 50
-112 56 -16 6 -28 15 -28 20 0 5 -5 9 -11 9 -11 0 -130 68 -139 80 -3 4 -12 9
-20 12 -15 6 -234 148 -256 167 -6 5 -36 27 -65 48 -123 87 -149 107 -149 115
0 4 -5 8 -10 8 -6 0 -27 15 -46 33 -20 17 -42 36 -50 40 -16 9 -38 56 -53 117
-28 108 -62 256 -87 375 -7 39 -18 90 -24 115 -5 25 -9 60 -10 78 0 31 3 29
67 -55 36 -48 69 -90 73 -93 3 -3 27 -32 52 -65 25 -33 56 -72 69 -86 13 -14
35 -39 48 -55 104 -126 306 -334 427 -440 38 -32 75 -66 84 -74 8 -8 47 -40
85 -70 39 -30 72 -58 73 -62 2 -5 10 -8 17 -8 8 0 18 -6 22 -13 10 -15 160
-117 172 -117 5 0 11 -3 13 -7 2 -5 19 -17 38 -27 83 -45 219 -113 236 -119
10 -3 51 -16 89 -30 250 -87 457 -112 915 -112 429 0 630 20 1020 102 160 33
501 134 525 155 5 4 15 8 23 8 8 0 28 6 45 14 91 41 127 56 136 56 6 0 11 4
11 9 0 5 14 12 30 16 17 4 30 11 30 16 0 5 6 9 13 9 7 0 36 16 66 35 29 19 56
35 61 35 5 0 10 3 12 8 2 4 23 20 48 37 50 33 276 257 385 381 38 43 76 86 85
95 32 34 68 78 147 184 46 61 87 115 93 122 5 7 10 15 10 18 0 5 39 64 50 75
17 17 156 295 184 368 42 111 64 175 83 242 8 30 21 78 29 105 34 117 92 386
110 510 8 53 27 135 31 132 2 -2 -1 -71 -7 -153z m194 -444 c3 -23 11 -49 16
-58 11 -20 27 -92 41 -177 5 -33 14 -88 19 -121 6 -34 10 -86 10 -115 0 -78 8
-99 36 -99 16 0 37 17 68 56 45 54 72 102 191 329 55 105 102 176 135 202 27
22 41 -13 38 -97 -3 -62 -6 -75 -20 -75 -37 0 -80 -69 -152 -240 -9 -22 -21
-48 -26 -57 -6 -10 -10 -23 -10 -29 0 -6 -6 -25 -14 -42 -8 -18 -40 -106 -70
-197 -31 -91 -61 -181 -67 -200 -12 -34 -20 -54 -53 -132 -9 -20 -16 -39 -16
-42 0 -26 -216 -457 -232 -464 -5 -2 -8 -9 -8 -16 0 -6 -16 -35 -35 -65 -19
-29 -35 -55 -35 -57 0 -3 -5 -10 -10 -17 -9 -10 -65 -94 -105 -156 -21 -32
-99 -136 -109 -146 -6 -5 -36 -41 -67 -80 -96 -120 -272 -288 -416 -398 -81
-62 -175 -156 -170 -171 10 -28 116 16 237 99 127 86 172 120 209 155 9 8 38
33 66 55 65 53 260 248 310 310 21 28 42 52 45 55 4 3 36 44 72 91 57 75 94
130 194 284 62 96 152 286 223 470 25 65 59 117 111 173 61 63 72 65 46 9 -32
-70 -106 -260 -106 -273 0 -20 13 -17 34 8 60 70 175 229 193 268 12 25 35 75
52 112 37 80 51 92 51 44 0 -19 -4 -37 -9 -40 -4 -3 -11 -20 -15 -38 -3 -18
-22 -64 -42 -103 -40 -79 -44 -85 -99 -169 -51 -78 -100 -173 -109 -211 -8
-30 -104 -165 -118 -165 -5 0 -8 -5 -8 -10 0 -10 -37 -68 -51 -80 -3 -3 -9
-12 -12 -20 -4 -8 -16 -28 -27 -45 -11 -16 -25 -42 -31 -57 -6 -16 -15 -28
-19 -28 -5 0 -11 -13 -15 -30 -4 -17 -10 -30 -15 -30 -4 0 -11 -12 -15 -27 -3
-15 -10 -30 -13 -33 -4 -3 -18 -26 -32 -52 -13 -27 -27 -48 -31 -48 -3 0 -10
-10 -16 -22 -28 -61 -305 -336 -463 -460 -30 -23 -61 -49 -69 -56 -8 -7 -26
-21 -40 -30 -14 -9 -30 -22 -34 -29 -4 -7 -13 -13 -18 -13 -6 0 -18 -7 -26
-16 -29 -28 -326 -220 -403 -260 -41 -22 -76 -42 -78 -47 -2 -4 -8 -7 -14 -7
-6 0 -29 -9 -52 -19 -83 -39 -114 -51 -130 -51 -9 0 -16 -4 -16 -10 0 -5 -8
-10 -18 -10 -24 0 -142 -59 -142 -71 0 -11 93 -11 170 1 104 15 185 31 201 40
31 17 106 23 115 9 9 -16 -74 -92 -143 -131 -85 -47 -271 -138 -282 -138 -6 0
-19 -4 -29 -9 -41 -22 -84 -40 -114 -46 -18 -4 -37 -11 -43 -15 -5 -4 -32 -13
-60 -20 -27 -6 -77 -18 -110 -27 -33 -8 -94 -19 -135 -25 -41 -5 -97 -14 -125
-19 -68 -14 -354 -41 -615 -59 -309 -21 -744 -7 -817 26 -17 8 -36 14 -41 14
-6 0 -23 7 -39 15 -48 24 -119 55 -129 55 -5 0 -16 6 -25 13 -13 9 42 11 260
8 322 -4 434 6 831 76 256 44 447 118 458 177 6 31 -18 36 -150 35 -130 -2
-158 5 -158 38 0 20 69 133 81 133 5 0 9 7 9 15 0 8 4 15 9 15 11 0 110 150
135 205 20 45 32 164 22 219 l-7 37 -27 -17 c-15 -9 -54 -48 -87 -86 -120
-139 -198 -199 -335 -255 -109 -45 -175 -62 -265 -68 -85 -6 -127 5 -133 37
-2 9 13 40 33 69 48 70 44 85 -20 81 -27 -2 -54 -7 -60 -12 -5 -4 -32 -11 -60
-15 -27 -4 -54 -11 -60 -15 -5 -5 -37 -11 -70 -15 -33 -4 -77 -11 -98 -16
-113 -29 -608 -29 -752 0 -27 5 -79 15 -115 21 -117 21 -165 32 -175 40 -5 4
-31 11 -58 15 -26 4 -49 11 -52 15 -3 5 -23 11 -45 15 -22 4 -42 11 -46 16 -3
5 -13 9 -22 9 -9 0 -29 6 -44 14 -15 8 -40 17 -57 21 -17 4 -31 10 -31 15 0 5
-14 11 -30 15 -17 4 -30 10 -30 15 0 4 -12 11 -27 15 -15 3 -30 10 -33 13 -3
4 -27 18 -54 31 -27 13 -70 45 -95 70 -52 53 -131 141 -131 146 0 2 -12 17
-26 32 -14 15 -35 41 -46 56 l-21 29 29 -15 c16 -9 44 -27 63 -41 19 -14 40
-26 47 -26 7 0 14 -3 16 -7 8 -20 408 -219 533 -265 228 -85 272 -91 706 -85
369 5 454 12 589 50 199 57 338 120 625 284 22 12 74 39 115 60 l75 37 335 1
c338 1 558 15 740 49 110 21 137 29 275 84 50 20 209 112 213 124 2 4 8 8 14
8 18 0 101 72 213 185 125 125 165 171 215 245 8 12 30 42 48 66 17 23 32 45
32 48 0 2 20 39 45 80 25 42 45 81 45 87 0 6 5 7 10 4 7 -4 7 -12 0 -25 -5
-10 -10 -26 -10 -35 0 -9 -9 -37 -21 -63 -11 -26 -24 -56 -28 -67 -56 -138
-219 -437 -300 -550 -121 -169 -291 -316 -536 -464 -66 -40 -127 -76 -135 -82
-67 -41 -223 -129 -231 -129 -5 0 -9 -4 -9 -10 0 -5 -8 -10 -17 -11 -10 0 -13
-3 -7 -5 11 -5 109 24 164 47 14 6 39 17 55 24 83 34 228 113 233 127 2 4 8 8
13 8 10 0 147 92 192 129 38 31 192 185 228 226 79 93 279 381 279 403 0 6 4
12 8 14 13 5 167 324 202 418 17 47 38 100 46 118 8 18 14 40 14 48 0 9 6 30
14 47 30 68 85 302 112 477 26 175 34 264 34 423 0 151 10 201 24 117z m-624
-616 c0 -17 -56 -105 -74 -117 -12 -7 -50 -24 -86 -37 -36 -13 -69 -27 -75
-31 -5 -4 -27 -10 -48 -14 -20 -4 -39 -11 -42 -15 -3 -5 -30 -12 -60 -15 -31
-4 -57 -11 -60 -15 -3 -5 -40 -11 -83 -15 -42 -3 -95 -10 -117 -16 -160 -39
-821 -39 -950 0 -16 5 -59 13 -95 16 -36 4 -69 11 -75 15 -5 4 -35 11 -65 15
-30 4 -59 11 -65 15 -5 4 -34 11 -62 15 -29 4 -55 11 -58 15 -3 5 -34 12 -70
15 -36 4 -68 11 -71 16 -11 19 -24 -4 -24 -42 0 -32 -6 -46 -32 -70 -18 -16
-40 -29 -50 -29 -9 0 -19 -4 -22 -9 -3 -5 -17 -12 -31 -15 -30 -8 -75 -44 -75
-61 0 -7 9 -20 20 -30 41 -37 18 -74 -67 -107 -56 -21 -110 -23 -150 -6 -32
14 -63 42 -63 57 0 6 -9 15 -21 21 -16 9 -35 7 -87 -8 -157 -46 -167 -47 -228
-16 -59 30 -65 47 -18 52 16 2 33 8 38 13 6 5 18 9 28 9 20 0 125 34 175 56
17 8 36 14 42 14 6 0 19 4 29 9 9 6 40 20 67 33 28 13 52 26 55 29 3 3 20 14
39 24 47 24 129 108 146 149 18 43 26 48 61 37 227 -69 452 -114 834 -167 296
-41 601 -33 860 22 231 49 510 136 590 184 18 10 40 13 40 4z m-3520 -254 c3
-5 18 -12 33 -15 15 -4 27 -11 27 -15 0 -4 12 -11 27 -15 15 -3 30 -10 33 -13
3 -4 29 -19 58 -34 28 -16 76 -40 105 -55 28 -16 54 -30 57 -33 3 -3 16 -11
30 -18 14 -7 41 -22 60 -33 19 -12 53 -32 75 -43 22 -12 58 -33 80 -47 85 -52
213 -104 315 -129 200 -49 337 -62 663 -63 158 0 287 -3 287 -6 0 -12 -96 -69
-200 -119 -122 -59 -210 -77 -341 -69 -99 5 -210 24 -224 38 -16 16 -83 10
-150 -13 -59 -21 -68 -21 -127 -9 -34 7 -67 17 -72 22 -25 23 -84 -1 -115 -47
-34 -49 -106 -124 -119 -124 -7 0 -12 -4 -12 -9 0 -11 -75 -51 -95 -51 -8 0
-15 7 -15 15 0 8 4 15 9 15 5 0 12 14 16 30 4 17 10 30 13 30 8 0 27 52 43
115 13 51 2 144 -22 195 -11 22 -22 40 -24 40 -3 0 -14 -9 -25 -20 -11 -11
-30 -20 -42 -20 -25 1 -68 32 -68 48 0 6 -4 12 -10 14 -5 2 -19 34 -30 72 -36
126 -73 115 -152 -44 -7 -14 -18 -31 -25 -38 -7 -7 -13 -17 -13 -21 0 -3 -30
-37 -66 -74 -98 -99 -154 -119 -154 -56 0 16 5 29 10 29 6 0 10 6 10 14 0 8
16 45 35 83 19 37 35 74 35 81 0 6 5 12 10 12 16 0 12 66 -5 80 -19 16 -37 4
-121 -77 -33 -32 -78 -67 -100 -78 -21 -11 -41 -23 -44 -27 -3 -3 -19 -10 -35
-14 -17 -4 -34 -10 -40 -14 -10 -8 -75 -25 -155 -40 -57 -11 -198 -11 -270 0
-116 18 -173 31 -199 45 -33 17 -311 303 -311 320 0 8 27 3 83 -15 230 -77
323 -94 532 -94 148 -1 191 2 240 18 168 51 267 107 361 203 41 42 74 80 74
85 0 12 52 1 60 -12z m2530 -286 c52 -13 145 -32 207 -41 102 -15 124 -15 238
-2 69 8 125 12 125 8 0 -4 -33 -41 -73 -82 -55 -56 -84 -78 -113 -85 -96 -25
-143 -34 -202 -39 -66 -6 -85 -21 -62 -47 9 -11 8 -21 -4 -43 -37 -68 -73 -85
-124 -59 -29 15 -30 15 -53 -17 -36 -48 -70 -77 -107 -93 -40 -16 -55 -10 -50
20 4 19 1 21 -33 18 -32 -3 -37 -1 -43 22 -6 24 -8 25 -29 13 -12 -6 -25 -16
-28 -20 -3 -5 -25 -11 -49 -14 l-43 -6 7 39 c5 21 12 44 17 51 14 16 7 105 -8
110 -6 2 -29 -18 -50 -45 -21 -26 -57 -64 -81 -83 -24 -19 -52 -41 -62 -50
-10 -8 -36 -24 -57 -35 -21 -10 -40 -22 -43 -26 -3 -3 -18 -10 -33 -13 -15 -4
-27 -11 -27 -15 0 -5 -13 -11 -30 -15 -16 -4 -30 -11 -30 -16 0 -5 -5 -9 -11
-9 -5 0 -29 -9 -52 -19 -23 -10 -67 -27 -97 -37 -30 -11 -57 -22 -60 -26 -3
-4 -25 -10 -48 -14 -23 -4 -42 -10 -42 -14 0 -5 -24 -11 -52 -15 -29 -4 -57
-11 -63 -15 -9 -7 -86 -21 -235 -40 -83 -11 -320 -13 -320 -2 0 5 26 13 58 19
89 17 155 33 177 43 11 5 36 12 55 16 19 3 40 10 45 14 6 4 27 10 47 14 20 4
50 13 65 21 15 8 35 15 43 15 9 0 20 4 25 8 6 5 40 19 78 31 37 12 79 29 95
37 15 7 32 14 39 14 6 0 24 6 40 14 15 8 44 21 63 29 96 42 240 114 280 140
80 52 201 186 240 265 l35 71 60 15 c99 24 263 20 375 -10z m-1066 -1820 c29
-11 17 -42 -31 -81 -27 -21 -50 -41 -53 -44 -3 -3 -17 -12 -32 -20 -157 -82
-280 -126 -413 -149 -64 -11 -355 -11 -465 0 -283 28 -443 55 -461 76 -6 8
-18 14 -25 14 -8 0 -14 4 -14 9 0 5 -10 13 -22 18 -33 12 -157 95 -162 109 -5
12 40 11 154 -6 61 -9 136 -17 400 -41 58 -5 123 -14 146 -19 139 -33 506 -15
609 29 48 21 244 81 264 81 11 0 21 4 21 9 0 6 15 12 33 14 17 2 33 5 34 5 1
1 8 -1 17 -4z"/>
<path d="M2175 6978 c-88 -30 -145 -54 -145 -60 0 -5 -6 -8 -13 -8 -24 0 -128
-102 -147 -144 -30 -67 -32 -84 -15 -135 19 -57 84 -131 117 -132 105 -5 174
58 222 202 13 41 32 92 41 114 9 22 20 49 24 60 5 11 16 37 25 58 9 21 16 42
16 47 0 13 -86 11 -125 -2z m1 -125 c-13 -27 -33 -79 -46 -118 -37 -114 -83
-175 -129 -175 -35 0 -65 33 -81 86 -11 36 -10 49 5 89 32 81 146 163 232 164
l41 1 -22 -47z"/>
<path d="M3058 4949 c-10 -10 -18 -22 -18 -26 0 -3 -6 -14 -14 -22 -7 -9 -23
-43 -36 -76 -12 -33 -28 -71 -34 -84 -6 -14 -11 -81 -11 -161 0 -151 9 -184
70 -246 48 -49 89 -64 176 -64 77 0 79 0 120 40 l41 39 -4 98 c-5 104 -8 110
-79 218 -21 33 -42 68 -45 78 -4 9 -10 17 -14 17 -5 0 -13 12 -19 28 -6 15
-20 41 -31 57 -10 17 -29 51 -42 78 -25 51 -34 55 -60 26z m66 -201 c20 -39
49 -87 65 -107 85 -109 122 -252 77 -297 -39 -38 -148 -19 -206 37 -54 51 -80
173 -60 272 18 84 64 182 81 171 4 -2 23 -36 43 -76z"/>
</g>
</svg>
